<svg width="112" height="16" fill="none" xmlns="http://www.w3.org/2000/svg"><path d="M9.688 12.5h-1.56V7.284H1.952V12.5H.392V1.036h1.56v5.112h6.176V1.036h1.56V12.5ZM20.294 1.036V2.34H16.59V12.5h-1.552V2.34h-3.72V1.036h8.976Zm7.27 7.32c.074.128.138.264.191.408.059.139.115.28.168.424a6.352 6.352 0 0 1 .368-.84l3.88-7.048c.07-.123.142-.197.216-.224a.994.994 0 0 1 .32-.04h1.144V12.5h-1.36V4.076a8.562 8.562 0 0 1 .032-.752l-3.928 7.168c-.133.24-.32.36-.56.36h-.224c-.24 0-.426-.12-.56-.36L23.235 3.3c.016.139.027.275.032.408.01.133.016.256.016.368V12.5h-1.36V1.036h1.144c.139 0 .246.013.32.04.075.027.147.101.216.224l3.96 7.056Zm10.63 2.84h4.96V12.5h-6.512V1.036h1.552v10.16ZM57.386 12.5h-1.2a.516.516 0 0 1-.336-.104.64.64 0 0 1-.192-.264l-1.072-2.768h-5.143l-1.072 2.768a.625.625 0 0 1-.193.256.511.511 0 0 1-.335.112h-1.2l4.584-11.464h1.576L57.386 12.5Zm-7.512-4.256h4.28l-1.8-4.664a8.723 8.723 0 0 1-.343-1.08 14.99 14.99 0 0 1-.337 1.088l-1.8 4.656Zm14.26-2.408a.636.636 0 0 1-.129.136.303.303 0 0 1-.183.048.487.487 0 0 1-.265-.096 2.772 2.772 0 0 0-.88-.44 2.346 2.346 0 0 0-.752-.104 2.42 2.42 0 0 0-1.047.216 2.03 2.03 0 0 0-.769.608c-.202.267-.357.59-.464.968a4.924 4.924 0 0 0-.152 1.272c0 .49.056.928.168 1.312.112.379.27.699.472.96.203.256.448.453.736.592.294.133.622.2.984.2.347 0 .633-.04.856-.12.224-.085.411-.179.56-.28a4.76 4.76 0 0 0 .369-.272.437.437 0 0 1 .288-.128c.122 0 .213.045.272.136l.4.52a3.11 3.11 0 0 1-1.32.952 4.737 4.737 0 0 1-1.672.296c-.507 0-.98-.093-1.416-.28a3.253 3.253 0 0 1-1.128-.808 3.95 3.95 0 0 1-.76-1.312c-.182-.517-.273-1.107-.273-1.768 0-.603.083-1.16.248-1.672.171-.512.416-.952.736-1.32a3.351 3.351 0 0 1 1.2-.872c.475-.208 1.02-.312 1.633-.312.565 0 1.066.093 1.504.28.437.181.824.44 1.16.776l-.377.512Zm7.892 6.664h-.632a.754.754 0 0 1-.336-.064c-.085-.043-.141-.133-.168-.272l-.16-.752c-.213.192-.421.365-.624.52-.202.15-.416.277-.64.384a3.446 3.446 0 0 1-.72.232c-.25.053-.53.08-.84.08-.314 0-.61-.043-.888-.128a1.935 1.935 0 0 1-1.2-1.064 2.409 2.409 0 0 1-.176-.96c0-.32.088-.627.264-.92.176-.299.459-.563.848-.792.395-.23.91-.416 1.544-.56.635-.15 1.41-.235 2.328-.256v-.632c0-.63-.136-1.104-.408-1.424-.266-.325-.664-.488-1.192-.488a2.5 2.5 0 0 0-.88.136 3.15 3.15 0 0 0-.616.296c-.17.107-.32.205-.448.296a.641.641 0 0 1-.368.128.463.463 0 0 1-.256-.072.64.64 0 0 1-.168-.192l-.256-.456c.448-.432.93-.755 1.448-.968a4.47 4.47 0 0 1 1.72-.32c.454 0 .856.075 1.208.224.352.15.648.357.888.624s.422.59.544.968c.123.379.184.795.184 1.248V12.5Zm-3.696-.872c.25 0 .48-.024.688-.072.208-.053.403-.125.584-.216.187-.096.363-.21.528-.344.17-.133.336-.285.496-.456V8.852a11.33 11.33 0 0 0-1.672.16c-.458.08-.832.187-1.12.32-.288.133-.498.29-.632.472a1.03 1.03 0 0 0-.192.608c0 .213.035.397.104.552.07.155.163.283.28.384.118.096.256.168.416.216.16.043.334.064.52.064Zm11.558.872c-.203 0-.331-.099-.384-.296l-.128-.984c-.347.421-.744.76-1.192 1.016-.443.25-.952.376-1.528.376-.464 0-.886-.088-1.264-.264a2.659 2.659 0 0 1-.968-.792c-.267-.347-.472-.779-.616-1.296-.144-.517-.216-1.112-.216-1.784 0-.597.08-1.152.24-1.664.16-.517.389-.965.688-1.344a3.214 3.214 0 0 1 2.576-1.216c.496 0 .92.085 1.272.256.352.165.666.4.944.704V.716h1.424V12.5h-.848Zm-2.76-1.04c.464 0 .869-.107 1.216-.32.352-.213.674-.515.968-.904v-3.92c-.262-.352-.55-.597-.864-.736a2.416 2.416 0 0 0-1.032-.216c-.758 0-1.339.27-1.744.808-.406.539-.608 1.307-.608 2.304 0 .528.045.981.136 1.36.09.373.224.683.4.928.176.24.392.416.648.528.256.112.549.168.88.168Zm9.201-7.192c.486 0 .934.083 1.344.248.41.16.766.395 1.064.704.299.304.53.683.696 1.136.17.448.256.96.256 1.536 0 .224-.024.373-.072.448-.048.075-.139.112-.272.112h-5.392c.01.512.08.957.208 1.336.128.379.304.696.528.952.224.25.49.44.8.568a2.8 2.8 0 0 0 1.04.184c.358 0 .664-.04.92-.12a4.598 4.598 0 0 0 1.136-.536c.128-.085.238-.128.328-.128.118 0 .208.045.272.136l.4.52c-.176.213-.386.4-.632.56-.245.155-.51.283-.792.384a4.672 4.672 0 0 1-.864.224c-.298.053-.594.08-.888.08-.56 0-1.077-.093-1.552-.28a3.515 3.515 0 0 1-1.224-.832 3.892 3.892 0 0 1-.8-1.36c-.192-.539-.288-1.157-.288-1.856 0-.565.085-1.093.256-1.584.176-.49.427-.915.752-1.272a3.376 3.376 0 0 1 1.192-.848 3.87 3.87 0 0 1 1.584-.312Zm.032 1.048c-.688 0-1.23.2-1.624.6-.394.395-.64.944-.736 1.648h4.408c0-.33-.045-.632-.136-.904a1.976 1.976 0 0 0-.4-.712 1.722 1.722 0 0 0-.648-.464 2.098 2.098 0 0 0-.864-.168Zm5.15 7.184V4.396h.849c.202 0 .33.099.384.296l.104.832a4.19 4.19 0 0 1 1-.904 2.383 2.383 0 0 1 1.296-.352c.55 0 .992.152 1.328.456.341.304.586.715.736 1.232.112-.293.258-.547.44-.76A2.647 2.647 0 0 1 99 4.364c.261-.064.525-.096.792-.096.426 0 .805.07 1.136.208.336.133.618.33.848.592.234.261.413.584.536.968.122.379.184.813.184 1.304v5.16h-1.424V7.34c0-.635-.139-1.115-.416-1.44-.278-.33-.68-.496-1.208-.496-.235 0-.459.043-.672.128-.208.08-.392.2-.552.36-.16.16-.288.363-.384.608-.09.24-.136.52-.136.84v5.16H96.28V7.34c0-.65-.13-1.136-.392-1.456-.262-.32-.643-.48-1.144-.48-.352 0-.68.096-.984.288a3.171 3.171 0 0 0-.824.768v6.04h-1.424Zm15.267 2.392a.715.715 0 0 1-.184.256c-.069.064-.178.096-.328.096h-1.056l1.48-3.216-3.344-7.632h1.232c.123 0 .219.032.288.096.07.059.12.125.152.2l2.168 5.104c.048.117.088.235.12.352.038.117.07.237.096.36l.112-.36c.038-.117.08-.237.128-.36l2.104-5.096a.445.445 0 0 1 .16-.208.427.427 0 0 1 .256-.088h1.136l-4.52 10.496Z" fill="#444"/></svg>