<svg width="33.000000" height="19.000000" viewBox="0 0 33 19" fill="none" xmlns="http://www.w3.org/2000/svg" xmlns:xlink="http://www.w3.org/1999/xlink">
	<desc>
			Created with Pixso.
	</desc>
	<defs/>
	<path id="Vector" d="M1.26 16.53C0.36 15.27 -0.08 13.76 7.62e-6 12.23L7.62e-6 5.84C-0.11 4.29 0.3 2.75 1.18 1.46C2.05 0.46 3.39 -1.91e-6 5.37 -1.91e-6C7.34 -1.91e-6 8.61 0.46 9.4 1.3C10.26 2.37 10.68 3.72 10.59 5.07L10.59 6.61L6.71 6.61L6.71 4.84C6.74 4.32 6.66 3.79 6.48 3.3C6.38 3.1 6.22 2.94 6.02 2.83C5.82 2.72 5.6 2.67 5.37 2.69C4.82 2.69 4.42 2.84 4.26 3.23C4.08 3.77 4 4.34 4.03 4.92L4.03 13.15C3.98 13.71 4.09 14.26 4.34 14.76C4.5 15.15 4.89 15.3 5.45 15.3C6 15.3 6.32 15.15 6.48 14.76C6.66 14.24 6.74 13.7 6.71 13.15L6.71 11.3L10.59 11.3L10.59 12.84C10.67 14.22 10.25 15.58 9.4 16.69C8.61 17.61 7.27 18.07 5.37 18.07C3.47 18 2.05 17.53 1.26 16.53Z" fill="#111111" fill-opacity="1.000000" fill-rule="nonzero"/>
	<path id="Vector" d="M15.25 0.23L19.75 0.23L23.07 17.76L19.44 17.76L18.8 14.07L16.2 14.07L15.56 17.76L11.85 17.76L15.25 0.23ZM18.49 11.76L17.54 4.92L16.59 11.76L18.49 11.76Z" fill="#111111" fill-opacity="1.000000" fill-rule="nonzero"/>
	<path id="Vector" d="M25.84 3.15L23.15 3.15L23.15 0.23L32.56 0.23L32.56 3.07L29.87 3.07L29.87 17.76L25.84 17.76L25.84 3.15Z" fill="#111111" fill-opacity="1.000000" fill-rule="nonzero"/>
</svg>
