<svg width="61.000000" height="18.000000" viewBox="0 0 61 18" fill="none" xmlns="http://www.w3.org/2000/svg" xmlns:xlink="http://www.w3.org/1999/xlink">
	<desc>
			Created with Pixso.
	</desc>
	<defs/>
	<path id="Vector" d="M-0.25 -0.77L6.7 -0.77L6.7 1.07L2.2 1.07L2.2 6.84L5.83 6.84L5.83 8.61L2.2 8.61L2.2 15.07L6.7 15.07L6.7 16.84L-0.33 16.84L-0.33 -0.77L-0.25 -0.77Z" fill="#111111" fill-opacity="1.000000" fill-rule="nonzero"/>
	<path id="Vector" d="M8.76 -0.77L10.5 -0.77L15.63 10.84L15.63 -0.77L17.69 -0.77L17.69 16.76L16.11 16.76L10.89 4.76L10.89 16.76L8.76 16.76L8.76 -0.77Z" fill="#111111" fill-opacity="1.000000" fill-rule="nonzero"/>
	<path id="Vector" d="M20.06 -0.77L27.01 -0.77L27.01 1.07L22.51 1.07L22.51 6.84L26.14 6.84L26.14 8.61L22.51 8.61L22.51 15.07L27.01 15.07L27.01 16.84L20.06 16.84L20.06 -0.77Z" fill="#111111" fill-opacity="1.000000" fill-rule="nonzero"/>
	<path id="Vector" d="M29.07 -0.77L32.7 -0.77C34.13 -0.87 35.55 -0.49 36.73 0.3C37.6 1 38 2.23 38 3.84C38 6.07 37.29 7.46 35.78 7.92L38.31 16.69L35.86 16.69L33.49 8.46L31.52 8.46L31.52 16.69L28.99 16.69L28.99 -0.77L29.07 -0.77ZM32.54 6.76C33.36 6.83 34.17 6.61 34.84 6.15C35.31 5.76 35.55 5 35.55 3.84C35.57 3.27 35.49 2.7 35.31 2.15C35.13 1.76 34.83 1.43 34.44 1.23C33.9 0.98 33.3 0.88 32.7 0.92L31.6 0.92L31.6 6.69L32.54 6.69L32.54 6.76Z" fill="#111111" fill-opacity="1.000000" fill-rule="nonzero"/>
	<path id="Vector" d="M41.16 15.46C40.34 14.11 39.95 12.56 40.05 11L40.05 5.15C40.03 4.03 40.17 2.92 40.45 1.84C40.71 1.03 41.24 0.33 41.95 -0.16C42.83 -0.67 43.85 -0.91 44.87 -0.85C46.53 -0.85 47.72 -0.47 48.43 0.38C49.25 1.5 49.64 2.86 49.54 4.23L49.54 4.84L47.16 4.84L47.16 4.3C47.17 3.66 47.12 3.02 47.01 2.38C46.94 1.98 46.71 1.62 46.37 1.38C45.93 1.1 45.4 0.96 44.87 0.99C44.31 0.96 43.75 1.12 43.29 1.46C43.11 1.61 42.95 1.8 42.85 2.01C42.74 2.22 42.67 2.45 42.66 2.69C42.56 3.37 42.5 4.07 42.5 4.76L42.5 11.3C42.44 12.3 42.61 13.3 42.98 14.23C43.29 14.84 43.92 15.07 44.87 15.07C45.25 15.12 45.63 15.05 45.96 14.89C46.3 14.73 46.58 14.47 46.77 14.15C47.19 13.18 47.38 12.12 47.32 11.07L47.32 9.84L45.03 9.84L45.03 8.07L49.61 8.07L49.61 16.76L48.03 16.76L47.8 14.76C47.59 15.43 47.16 16.02 46.57 16.42C45.98 16.83 45.28 17.03 44.56 17C43.9 17.03 43.25 16.91 42.66 16.64C42.07 16.37 41.55 15.97 41.16 15.46Z" fill="#111111" fill-opacity="1.000000" fill-rule="nonzero"/>
	<path id="Vector" d="M54.67 10.61L50.8 -0.7L53.17 -0.7L55.94 7.76L58.62 -0.7L61 -0.7L57.12 10.61L57.12 16.76L54.75 16.76L54.75 10.61L54.67 10.61Z" fill="#111111" fill-opacity="1.000000" fill-rule="nonzero"/>
</svg>
